<svg xmlns="http://www.w3.org/2000/svg" xmlns:xlink="http://www.w3.org/1999/xlink" version="1.1" width="1000" height="1000" viewBox="0 0 1000 1000" xml:space="preserve">
<desc>Created with Fabric.js 3.5.0</desc>
<defs>
</defs>
<rect x="0" y="0" width="100%" height="100%" fill="#ffffff"/>
<g transform="matrix(4.2439 0 0 4.2439 497.5692 495.2598)" id="741124">
<g style="" vector-effect="non-scaling-stroke">
		<g transform="matrix(0.5 -0.866 0.866 0.5 -17.3214 0.001)" id="fill">
<path style="stroke: none; stroke-width: 1; stroke-dasharray: none; stroke-linecap: butt; stroke-dashoffset: 0; stroke-linejoin: miter; stroke-miterlimit: 4; is-custom-font: none; font-file-url: none; fill: rgb(217,218,226); fill-rule: nonzero; opacity: 1;" transform=" translate(-14.679, -32)" d="M 12.639 29 H 16.72 a 1.959 1.959 0 0 1 1.959 1.959 V 35 a 0 0 0 0 1 0 0 h -8 a 0 0 0 0 1 0 0 V 30.959 A 1.959 1.959 0 0 1 12.639 29 Z" stroke-linecap="round"/>
</g>
		<g transform="matrix(1 0 0 1 -15.8445 0.3591)" id="fill">
<path style="stroke: none; stroke-width: 1; stroke-dasharray: none; stroke-linecap: butt; stroke-dashoffset: 0; stroke-linejoin: miter; stroke-miterlimit: 4; is-custom-font: none; font-file-url: none; fill: rgb(207,207,217); fill-rule: nonzero; opacity: 1;" transform=" translate(-16.1555, -32.3591)" d="M 15.778 28.015 a 1.959 1.959 0 0 0 -2.676 0.717 l -0.069 0.12 a 1.952 1.952 0 0 1 1.467 0.2 L 18 31.072 l -3.232 5.6 l 0.51 0.294 l 4 -6.928 Z" stroke-linecap="round"/>
</g>
		<g transform="matrix(1 0 0 1 0 10)" id="fill">
<circle style="stroke: none; stroke-width: 1; stroke-dasharray: none; stroke-linecap: butt; stroke-dashoffset: 0; stroke-linejoin: miter; stroke-miterlimit: 4; is-custom-font: none; font-file-url: none; fill: rgb(217,218,226); fill-rule: nonzero; opacity: 1;" cx="0" cy="0" r="19"/>
</g>
		<g transform="matrix(1 0 0 1 9 10)" id="fill">
<path style="stroke: none; stroke-width: 1; stroke-dasharray: none; stroke-linecap: butt; stroke-dashoffset: 0; stroke-linejoin: miter; stroke-miterlimit: 4; is-custom-font: none; font-file-url: none; fill: rgb(207,207,217); fill-rule: nonzero; opacity: 1;" transform=" translate(-41, -42)" d="M 32 23 c -0.338 0 -0.667 0.033 -1 0.05 a 18.975 18.975 0 0 1 0 37.9 c 0.333 0.017 0.662 0.05 1 0.05 a 19 19 0 0 0 0 -38 Z" stroke-linecap="round"/>
</g>
		<g transform="matrix(1 0 0 1 -9 10)" id="fill">
<path style="stroke: none; stroke-width: 1; stroke-dasharray: none; stroke-linecap: butt; stroke-dashoffset: 0; stroke-linejoin: miter; stroke-miterlimit: 4; is-custom-font: none; font-file-url: none; fill: rgb(229,230,235); fill-rule: nonzero; opacity: 1;" transform=" translate(-23, -42)" d="M 15 42 A 18.985 18.985 0 0 1 33 23.05 c -0.333 -0.017 -0.662 -0.05 -1 -0.05 a 19 19 0 0 0 0 38 c 0.338 0 0.667 -0.033 1 -0.05 A 18.985 18.985 0 0 1 15 42 Z" stroke-linecap="round"/>
</g>
		<g transform="matrix(1 0 0 1 0 10)" id="fill">
<circle style="stroke: none; stroke-width: 1; stroke-dasharray: none; stroke-linecap: butt; stroke-dashoffset: 0; stroke-linejoin: miter; stroke-miterlimit: 4; is-custom-font: none; font-file-url: none; fill: rgb(68,68,68); fill-rule: nonzero; opacity: 1;" cx="0" cy="0" r="15"/>
</g>
		<g transform="matrix(1 0 0 1 7.5 10)" id="fill">
<path style="stroke: none; stroke-width: 1; stroke-dasharray: none; stroke-linecap: butt; stroke-dashoffset: 0; stroke-linejoin: miter; stroke-miterlimit: 4; is-custom-font: none; font-file-url: none; fill: rgb(0,0,0); fill-rule: nonzero; opacity: 1;" transform=" translate(-39.5, -42)" d="M 32 27 a 15 15 0 0 1 0 30 Z" stroke-linecap="round"/>
</g>
		<g transform="matrix(1 0 0 1 2 6.5)" id="fill">
<path style="stroke: none; stroke-width: 1; stroke-dasharray: none; stroke-linecap: butt; stroke-dashoffset: 0; stroke-linejoin: miter; stroke-miterlimit: 4; is-custom-font: none; font-file-url: none; fill: rgb(255,255,255); fill-rule: nonzero; opacity: 1;" transform=" translate(-34, -38.5)" d="M 37 43 H 32 a 1 1 0 0 1 -1 -1 V 34 h 2 v 7 h 4 Z" stroke-linecap="round"/>
</g>
		<g transform="matrix(1 0 0 1 19 -16)" id="fill">
<rect style="stroke: none; stroke-width: 1; stroke-dasharray: none; stroke-linecap: butt; stroke-dashoffset: 0; stroke-linejoin: miter; stroke-miterlimit: 4; is-custom-font: none; font-file-url: none; fill: rgb(133,180,224); fill-rule: nonzero; opacity: 1;" x="-0.5" y="-6" rx="0" ry="0" width="1" height="12"/>
</g>
		<g transform="matrix(1 0 0 1 19 -8)" id="fill">
<path style="stroke: none; stroke-width: 1; stroke-dasharray: none; stroke-linecap: butt; stroke-dashoffset: 0; stroke-linejoin: miter; stroke-miterlimit: 4; is-custom-font: none; font-file-url: none; fill: rgb(204,234,255); fill-rule: nonzero; opacity: 1;" transform=" translate(-51, -24)" d="M 51 21 h 0 a 2 2 0 0 1 2 2 v 4 a 0 0 0 0 1 0 0 H 49 a 0 0 0 0 1 0 0 V 23 A 2 2 0 0 1 51 21 Z" stroke-linecap="round"/>
</g>
		<g transform="matrix(1 0 0 1 0 10.7957)" id="fill">
<path style="stroke: none; stroke-width: 1; stroke-dasharray: none; stroke-linecap: butt; stroke-dashoffset: 0; stroke-linejoin: miter; stroke-miterlimit: 4; is-custom-font: none; font-file-url: none; fill: rgb(0,0,0); fill-rule: nonzero; opacity: 1;" transform=" translate(-32, -42.7957)" d="M 38.863 27.569 l -2.37 1.184 a 14 14 0 1 1 -8.986 0 l -2.37 -1.184 a 16 16 0 1 0 13.726 0 Z" stroke-linecap="round"/>
</g>
		<g transform="matrix(1 0 0 1 -1.1 9.989)" id="fill">
<path style="stroke: none; stroke-width: 1; stroke-dasharray: none; stroke-linecap: butt; stroke-dashoffset: 0; stroke-linejoin: miter; stroke-miterlimit: 4; is-custom-font: none; font-file-url: none; fill: rgb(0,0,0); fill-rule: nonzero; opacity: 1;" transform=" translate(-30.9, -41.989)" d="M 32 22 a 19.93 19.93 0 0 0 -14.255 6 l -1.467 -0.847 a 2.966 2.966 0 0 0 -4.043 1.083 l -2.041 3.536 a 2.96 2.96 0 0 0 1.084 4.042 l 1.468 0.848 A 19.989 19.989 0 1 0 32 22 Z M 12.278 34.077 a 0.957 0.957 0 0 1 -0.351 -1.309 l 2.041 -3.536 a 0.961 0.961 0 0 1 1.31 -0.35 l 1.115 0.643 a 20.007 20.007 0 0 0 -3 5.2 Z M 32 60 A 18 18 0 1 1 50 42 A 18.021 18.021 0 0 1 32 60 Z" stroke-linecap="round"/>
</g>
		<g transform="matrix(1 0 0 1 0 -11)" id="fill">
<polygon style="stroke: none; stroke-width: 1; stroke-dasharray: none; stroke-linecap: butt; stroke-dashoffset: 0; stroke-linejoin: miter; stroke-miterlimit: 4; is-custom-font: none; font-file-url: none; fill: rgb(2,125,229); fill-rule: nonzero; opacity: 1;" points="10,5 0,10 -10,5 -10,-10 0,-7 10,-10 10,5 "/>
</g>
		<g transform="matrix(1 0 0 1 0 -11)" id="fill">
<path style="stroke: none; stroke-width: 1; stroke-dasharray: none; stroke-linecap: butt; stroke-dashoffset: 0; stroke-linejoin: miter; stroke-miterlimit: 4; is-custom-font: none; font-file-url: none; fill: rgb(4,104,173); fill-rule: nonzero; opacity: 1;" transform=" translate(-32, -21)" d="M 32 14 L 22 11 v 2 A 14.033 14.033 0 0 1 32 26.44 V 31 l 10 -5 V 11 Z" stroke-linecap="round"/>
</g>
		<g transform="matrix(1 0 0 1 0 -22)" id="fill">
<polygon style="stroke: none; stroke-width: 1; stroke-dasharray: none; stroke-linecap: butt; stroke-dashoffset: 0; stroke-linejoin: miter; stroke-miterlimit: 4; is-custom-font: none; font-file-url: none; fill: rgb(2,125,229); fill-rule: nonzero; opacity: 1;" points="0,-7 -20,0 0,7 20,0 0,-7 "/>
</g>
</g>
</g>
</svg>